<svg width="116" height="31" viewBox="0 0 116 31" fill="none" xmlns="http://www.w3.org/2000/svg">
<path d="M6.07188 15.56V23H0.941875V1.79H9.25188C11.7719 1.79 13.6919 2.42 15.0119 3.68C16.3319 4.92 16.9919 6.6 16.9919 8.72C16.9919 10.04 16.6919 11.22 16.0919 12.26C15.5119 13.28 14.6419 14.09 13.4819 14.69C12.3219 15.27 10.9119 15.56 9.25188 15.56H6.07188ZM8.68188 11.45C10.7419 11.45 11.7719 10.54 11.7719 8.72C11.7719 6.86 10.7419 5.93 8.68188 5.93H6.07188V11.45H8.68188ZM27.3461 6.05C29.0061 6.05 30.4861 6.4 31.7861 7.1C33.1061 7.78 34.1361 8.77 34.8761 10.07C35.6361 11.37 36.0161 12.89 36.0161 14.63C36.0161 16.37 35.6361 17.89 34.8761 19.19C34.1361 20.49 33.1061 21.49 31.7861 22.19C30.4861 22.87 29.0061 23.21 27.3461 23.21C25.6861 23.21 24.1961 22.87 22.8761 22.19C21.5561 21.49 20.5161 20.49 19.7561 19.19C19.0161 17.89 18.6461 16.37 18.6461 14.63C18.6461 12.89 19.0161 11.37 19.7561 10.07C20.5161 8.77 21.5561 7.78 22.8761 7.1C24.1961 6.4 25.6861 6.05 27.3461 6.05ZM27.3461 10.49C26.3661 10.49 25.5361 10.85 24.8561 11.57C24.1961 12.27 23.8661 13.29 23.8661 14.63C23.8661 15.97 24.1961 16.99 24.8561 17.69C25.5361 18.39 26.3661 18.74 27.3461 18.74C28.3261 18.74 29.1461 18.39 29.8061 17.69C30.4661 16.99 30.7961 15.97 30.7961 14.63C30.7961 13.29 30.4661 12.27 29.8061 11.57C29.1461 10.85 28.3261 10.49 27.3461 10.49ZM43.8063 0.8V23H38.6763V0.8H43.8063ZM52.4781 0.8V23H47.3481V0.8H52.4781Z" fill="#209CEE"/>
<path d="M69.16 19.13H61.21L59.89 23H54.49L62.26 1.94H68.17L75.94 23H70.48L69.16 19.13ZM67.84 15.23L65.2 7.43L62.53 15.23H67.84ZM88.3741 6.05C89.7541 6.05 90.9841 6.4 92.0641 7.1C93.1641 7.78 94.0241 8.77 94.6441 10.07C95.2841 11.35 95.6041 12.87 95.6041 14.63C95.6041 16.37 95.2841 17.89 94.6441 19.19C94.0241 20.49 93.1641 21.49 92.0641 22.19C90.9841 22.87 89.7541 23.21 88.3741 23.21C87.0941 23.21 85.9941 22.92 85.0741 22.34C84.1541 21.76 83.4841 20.97 83.0641 19.97V30.98H77.9341V6.26H83.0641V9.29C83.4841 8.29 84.1541 7.5 85.0741 6.92C85.9941 6.34 87.0941 6.05 88.3741 6.05ZM86.7241 10.55C85.6441 10.55 84.7541 10.92 84.0541 11.66C83.3741 12.38 83.0341 13.37 83.0341 14.63C83.0341 15.87 83.3741 16.86 84.0541 17.6C84.7541 18.34 85.6441 18.71 86.7241 18.71C87.8241 18.71 88.7041 18.35 89.3641 17.63C90.0441 16.91 90.3841 15.91 90.3841 14.63C90.3841 13.35 90.0441 12.35 89.3641 11.63C88.7041 10.91 87.8241 10.55 86.7241 10.55ZM108.706 6.05C110.086 6.05 111.316 6.4 112.396 7.1C113.496 7.78 114.356 8.77 114.976 10.07C115.616 11.35 115.936 12.87 115.936 14.63C115.936 16.37 115.616 17.89 114.976 19.19C114.356 20.49 113.496 21.49 112.396 22.19C111.316 22.87 110.086 23.21 108.706 23.21C107.426 23.21 106.326 22.92 105.406 22.34C104.486 21.76 103.816 20.97 103.396 19.97V30.98H98.2661V6.26H103.396V9.29C103.816 8.29 104.486 7.5 105.406 6.92C106.326 6.34 107.426 6.05 108.706 6.05ZM107.056 10.55C105.976 10.55 105.086 10.92 104.386 11.66C103.706 12.38 103.366 13.37 103.366 14.63C103.366 15.87 103.706 16.86 104.386 17.6C105.086 18.34 105.976 18.71 107.056 18.71C108.156 18.71 109.036 18.35 109.696 17.63C110.376 16.91 110.716 15.91 110.716 14.63C110.716 13.35 110.376 12.35 109.696 11.63C109.036 10.91 108.156 10.55 107.056 10.55Z" fill="#00D1B2"/>
</svg>
